<?xml version="1.0" encoding="utf-8"?>
<!-- Generator: Adobe Illustrator 18.0.0, SVG Export Plug-In . SVG Version: 6.00 Build 0)  -->
<!DOCTYPE svg PUBLIC "-//W3C//DTD SVG 1.1//EN" "http://www.w3.org/Graphics/SVG/1.1/DTD/svg11.dtd">
<svg version="1.1" id="Layer_1" xmlns="http://www.w3.org/2000/svg" xmlns:xlink="http://www.w3.org/1999/xlink" x="0px" y="0px"
	 width="10px" height="14px" viewBox="2 -2 10 14" enable-background="new 2 -2 10 14" xml:space="preserve">
<path fill="#89B57D" d="M12-2v12h-2V8H9v3H8V9H6v2H5V8H4v2H2V-2h2v2l1,0v-1h1v-1h2v1h1v1l1,0v-2H12z"/>
<path fill="#67875E" d="M10,1v6H8v1H6V7H4V1h2V0l2,0v1H10z"/>
<path fill="#C9CAC9" d="M8,9v2H6V9H8z"/>
<path fill="#89B57D" d="M8,11v1H6v-1H8z"/>
</svg>
